<mxfile host="65bd71144e">
    <diagram id="H0ON2f_15NVZSamJTb4W" name="Página-1">
        <mxGraphModel dx="1491" dy="1053" grid="1" gridSize="10" guides="1" tooltips="1" connect="1" arrows="1" fold="1" page="1" pageScale="1" pageWidth="1169" pageHeight="827" math="0" shadow="0">
            <root>
                <mxCell id="0"/>
                <mxCell id="1" parent="0"/>
                <mxCell id="N7_YvTh9Ru7VLPoMYilD-1" value="&lt;h1&gt;&lt;font color=&quot;#000000&quot;&gt;Usuário requisita empréstimo&lt;/font&gt;&lt;/h1&gt;&lt;p&gt;&lt;font color=&quot;#000000&quot;&gt;Através do APP, o usuário faz a requisição do empréstimo.&lt;/font&gt;&lt;/p&gt;&lt;p&gt;&lt;font color=&quot;#000000&quot;&gt;&lt;br&gt;&lt;/font&gt;&lt;/p&gt;&lt;p&gt;&lt;font color=&quot;#000000&quot;&gt;O valor do empréstimo pode estar na faixa pré-aprovada, ou pode ser superior.&lt;/font&gt;&lt;/p&gt;&lt;p&gt;&lt;font color=&quot;#000000&quot;&gt;&lt;br&gt;&lt;/font&gt;&lt;/p&gt;&lt;p&gt;&lt;font color=&quot;#000000&quot;&gt;O usuário deve ser informado que sua solicitação foi enviada.&lt;/font&gt;&lt;/p&gt;" style="text;html=1;strokeColor=#d6b656;fillColor=#fff2cc;spacing=5;spacingTop=-20;whiteSpace=wrap;overflow=hidden;rounded=0;" parent="1" vertex="1">
                    <mxGeometry x="40" y="40" width="360" height="200" as="geometry"/>
                </mxCell>
                <mxCell id="N7_YvTh9Ru7VLPoMYilD-2" value="&lt;h1&gt;&lt;font color=&quot;#000000&quot;&gt;API recebe requisição de Empréstimo&lt;/font&gt;&lt;/h1&gt;&lt;p&gt;&lt;font color=&quot;#000000&quot;&gt;1. Deve ser armazenado o status do processamento (INICIADO).&lt;/font&gt;&lt;/p&gt;&lt;p&gt;&lt;span&gt;&lt;font color=&quot;#000000&quot;&gt;2. Caso o valor esteja dentro da faixa pré-aprovada,&lt;/font&gt;&lt;/span&gt;&lt;/p&gt;&lt;p&gt;&lt;span&gt;&lt;font color=&quot;#000000&quot;&gt;&lt;span&gt; &lt;/span&gt;&lt;span style=&quot;white-space: pre&quot;&gt; &lt;/span&gt;2.1 Não é necessário enviar para a Análise de Crédito, status = &quot;Pendente envio ao financeiro&quot;&lt;/font&gt;&lt;/span&gt;&lt;/p&gt;&lt;p&gt;&lt;span&gt;&lt;font color=&quot;#000000&quot;&gt;&lt;span style=&quot;white-space: pre&quot;&gt; &lt;/span&gt;2.2 Enviar para o Financeiro, status = &quot;Enviado ao financeiro&quot;&lt;/font&gt;&lt;/span&gt;&lt;/p&gt;&lt;p&gt;&lt;span&gt;&lt;font color=&quot;#000000&quot;&gt;3. Caso o valor esteja acima da faixa pré-aprovada,&lt;/font&gt;&lt;/span&gt;&lt;/p&gt;&lt;p&gt;&lt;span&gt;&lt;font color=&quot;#000000&quot;&gt;&lt;span style=&quot;white-space: pre&quot;&gt; &lt;/span&gt;3.1 Enviar para a Análise de Crédito, status = &quot;Em análise de crédito&quot;&lt;/font&gt;&lt;/span&gt;&lt;/p&gt;&lt;p&gt;&lt;br&gt;&lt;/p&gt;" style="text;html=1;strokeColor=#d6b656;fillColor=#fff2cc;spacing=5;spacingTop=-20;whiteSpace=wrap;overflow=hidden;rounded=0;" parent="1" vertex="1">
                    <mxGeometry x="490" y="40" width="520" height="240" as="geometry"/>
                </mxCell>
                <mxCell id="gjlxMofRhx_1TDR0LI8n-1" value="&lt;h1&gt;&lt;font color=&quot;#000000&quot;&gt;Aplicação recebe mensagem do financeiro&lt;/font&gt;&lt;/h1&gt;&lt;p&gt;&lt;span&gt;&lt;font color=&quot;#000000&quot;&gt;Finalizar as interações desta requisição, com a indicação de um status final,&amp;nbsp;&lt;/font&gt;&lt;/span&gt;&lt;/p&gt;&lt;p&gt;&lt;span&gt;&lt;font color=&quot;#000000&quot;&gt;- &quot;Empréstimo efetuado&quot;&lt;/font&gt;&lt;/span&gt;&lt;/p&gt;&lt;p&gt;&lt;font color=&quot;#000000&quot;&gt;- &quot;Empréstimo não efetuado&quot;&lt;/font&gt;&lt;span&gt;&lt;br&gt;&lt;/span&gt;&lt;/p&gt;" style="text;html=1;strokeColor=#d6b656;fillColor=#fff2cc;spacing=5;spacingTop=-20;whiteSpace=wrap;overflow=hidden;rounded=0;" parent="1" vertex="1">
                    <mxGeometry x="480" y="600" width="520" height="160" as="geometry"/>
                </mxCell>
                <mxCell id="gjlxMofRhx_1TDR0LI8n-2" value="&lt;h1&gt;&lt;font color=&quot;#000000&quot;&gt;API recebe resposta da análise de crédito&lt;/font&gt;&lt;/h1&gt;&lt;p&gt;&lt;span&gt;&lt;font color=&quot;#000000&quot;&gt;1. Atualizar status, &quot;Análise de crédito encerrada&quot;&lt;/font&gt;&lt;/span&gt;&lt;/p&gt;&lt;p&gt;&lt;span&gt;&lt;font color=&quot;#000000&quot;&gt;2. Caso o Empréstimo seja aceito,&amp;nbsp;&lt;/font&gt;&lt;/span&gt;&lt;/p&gt;&lt;p&gt;&lt;span&gt;&lt;font color=&quot;#000000&quot;&gt;&lt;span style=&quot;white-space: pre&quot;&gt; &lt;/span&gt;2.1 status = &quot;Pendente envio ao financeiro&quot;&lt;/font&gt;&lt;/span&gt;&lt;/p&gt;&lt;p&gt;&lt;span&gt;&lt;font color=&quot;#000000&quot;&gt;&lt;span style=&quot;white-space: pre&quot;&gt; &lt;/span&gt;2.2 Enviar ao financeiro, status = &quot;Enviado ao financeiro&quot;&lt;/font&gt;&lt;/span&gt;&lt;/p&gt;&lt;p&gt;&lt;span&gt;&lt;font color=&quot;#000000&quot;&gt;3. Caso o Empréstimo seja recusado,&lt;/font&gt;&lt;/span&gt;&lt;/p&gt;&lt;p&gt;&lt;span&gt;&lt;font color=&quot;#000000&quot;&gt;&lt;span style=&quot;white-space: pre&quot;&gt; &lt;/span&gt;3.1 Finalizar as interações desta requisição, status = &quot;Empréstimo recusado&quot;&lt;/font&gt;&lt;br&gt;&lt;/span&gt;&lt;/p&gt;" style="text;html=1;strokeColor=#d6b656;fillColor=#fff2cc;spacing=5;spacingTop=-20;whiteSpace=wrap;overflow=hidden;rounded=0;" parent="1" vertex="1">
                    <mxGeometry x="480" y="320" width="520" height="240" as="geometry"/>
                </mxCell>
                <mxCell id="gjlxMofRhx_1TDR0LI8n-3" value="&lt;h1&gt;&lt;font color=&quot;#000000&quot;&gt;API atualizou status&lt;/font&gt;&lt;/h1&gt;&lt;p&gt;&lt;font color=&quot;#000000&quot;&gt;A atualização deve ser propagada para o serviço de notificações&lt;/font&gt;&lt;/p&gt;" style="text;html=1;strokeColor=#d6b656;fillColor=#fff2cc;spacing=5;spacingTop=-20;whiteSpace=wrap;overflow=hidden;rounded=0;" parent="1" vertex="1">
                    <mxGeometry x="1080" y="40" width="240" height="80" as="geometry"/>
                </mxCell>
            </root>
        </mxGraphModel>
    </diagram>
</mxfile>